<?xml version="1.0" encoding="UTF-8"?>
<svg xmlns="http://www.w3.org/2000/svg" viewBox="0 0 500 444.85">
  <defs>
    <style>
      .cls-1 {
        fill: #ffb463;
      }

      .cls-1, .cls-2, .cls-3, .cls-4, .cls-5, .cls-6, .cls-7, .cls-8, .cls-9, .cls-10, .cls-11, .cls-12, .cls-13, .cls-14, .cls-15, .cls-16, .cls-17, .cls-18, .cls-19, .cls-20, .cls-21, .cls-22, .cls-23, .cls-24 {
        stroke-width: 0px;
      }

      .cls-25, .cls-26 {
        stroke: #407bff;
      }

      .cls-25, .cls-26, .cls-27 {
        fill: none;
        stroke-linecap: round;
        stroke-linejoin: round;
      }

      .cls-25, .cls-27 {
        stroke-width: .5px;
      }

      .cls-2, .cls-23 {
        fill: #407bff;
      }

      .cls-3, .cls-10, .cls-28, .cls-27 {
        opacity: .2;
      }

      .cls-3, .cls-28 {
        isolation: isolate;
      }

      .cls-29, .cls-16 {
        opacity: .6;
      }

      .cls-4 {
        opacity: .9;
      }

      .cls-4, .cls-11, .cls-16, .cls-19, .cls-24 {
        fill: #fff;
      }

      .cls-6, .cls-30, .cls-24 {
        opacity: .3;
      }

      .cls-7 {
        fill: #e0e0e0;
      }

      .cls-8 {
        fill: #f5f5f5;
      }

      .cls-9 {
        fill: #f0f0f0;
      }

      .cls-12 {
        fill: #a24e3f;
      }

      .cls-13 {
        fill: #ff7800;
      }

      .cls-14 {
        fill: #ff7d74;
      }

      .cls-15 {
        fill: #b97964;
      }

      .cls-17 {
        fill: #263238;
      }

      .cls-31 {
        opacity: .1;
      }

      .cls-18 {
        fill: #ff3f3e;
      }

      .cls-19 {
        opacity: .7;
      }

      .cls-20 {
        opacity: .5;
      }

      .cls-21 {
        fill: #ebebeb;
      }

      .cls-22 {
        fill: #fdbbb5;
      }

      .cls-23 {
        opacity: .4;
      }

      .cls-27 {
        stroke: #000;
      }
    </style>
  </defs>
  <g id="Background_complete" data-name="Background complete">
    <g>
      <g>
        <path class="cls-7" d="M443.92,288.92h-180.75c-3.23,0-5.86-2.63-5.86-5.86V19.79c0-3.23,2.63-5.86,5.86-5.86h180.75c3.23,0,5.86,2.63,5.86,5.86v263.27c0,3.23-2.63,5.86-5.86,5.86ZM263.17,14.18c-3.09,0-5.61,2.52-5.61,5.61v263.27c0,3.09,2.52,5.61,5.61,5.61h180.75c3.09,0,5.61-2.52,5.61-5.61V19.79c0-3.09-2.52-5.61-5.61-5.61h-180.75Z"/>
        <path class="cls-7" d="M235.49,288.92H54.75c-3.23,0-5.86-2.63-5.86-5.86V19.79c0-3.23,2.63-5.86,5.86-5.86h180.75c3.23,0,5.86,2.63,5.86,5.86v263.27c0,3.23-2.63,5.86-5.86,5.86ZM54.75,14.18c-3.09,0-5.61,2.52-5.61,5.61v263.27c0,3.09,2.52,5.61,5.61,5.61h180.75c3.09,0,5.61-2.52,5.61-5.61V19.79c0-3.09-2.52-5.61-5.61-5.61H54.75Z"/>
      </g>
      <g>
        <rect class="cls-7" y="311.25" width="500" height=".25"/>
        <rect class="cls-7" x="51.67" y="325.52" width="16.06" height=".25"/>
        <rect class="cls-7" x="170.35" y="322.81" width="53.53" height=".25"/>
        <rect class="cls-7" x="68.73" y="334.81" width="36.25" height=".25"/>
        <rect class="cls-7" x="378.35" y="322.68" width="43.19" height=".25"/>
        <rect class="cls-7" x="430.45" y="322.68" width="6.33" height=".25"/>
        <rect class="cls-7" x="316.21" y="328.91" width="53.89" height=".25"/>
      </g>
    </g>
    <path class="cls-9" d="M259.54,314.64c-1.68,3.31-2.67,6.85-3,10.42l-5.51,1.14,1.2,10.77,5.62-.09c1.11,3.41,2.85,6.65,5.22,9.51l-3.08,4.69,8.46,6.77,3.9-4.03c3.31,1.68,6.85,2.67,10.42,3l1.14,5.51,10.77-1.2-.09-5.62c3.41-1.11,6.65-2.85,9.51-5.22l4.69,3.08,6.77-8.47-4.03-3.9c1.68-3.31,2.67-6.85,3-10.42l5.5-1.14-1.2-10.77-5.62.09c-1.11-3.41-2.85-6.65-5.22-9.51l3.08-4.69-8.47-6.77-3.9,4.03c-3.31-1.68-6.85-2.67-10.42-3.01l-1.14-5.51-10.77,1.2.09,5.62c-3.41,1.11-6.65,2.85-9.51,5.22l-4.69-3.08-6.77,8.47,4.03,3.9ZM294.59,316.26c5.99,4.79,6.96,13.53,2.17,19.52-4.79,5.99-13.53,6.96-19.52,2.17-5.99-4.79-6.96-13.53-2.17-19.52,4.79-5.99,13.53-6.96,19.52-2.17Z"/>
    <path class="cls-9" d="M204.88,311.7c-1.22,2.4-1.93,4.96-2.18,7.55l-3.99.83.87,7.81,4.07-.07c.81,2.47,2.07,4.82,3.78,6.89l-2.23,3.4,6.13,4.91,2.82-2.92c2.4,1.22,4.96,1.93,7.55,2.18l.83,3.99,7.8-.87-.07-4.07c2.47-.81,4.82-2.07,6.89-3.78l3.4,2.23,4.91-6.13-2.92-2.82c1.22-2.4,1.93-4.96,2.18-7.55l3.99-.83-.87-7.8-4.07.07c-.81-2.47-2.07-4.82-3.78-6.89l2.23-3.4-6.13-4.91-2.82,2.92c-2.4-1.22-4.96-1.93-7.55-2.18l-.83-3.99-7.8.87.07,4.07c-2.47.81-4.82,2.07-6.89,3.78l-3.4-2.23-4.91,6.13,2.92,2.82ZM230.27,312.88c4.34,3.47,5.04,9.8,1.57,14.14-3.47,4.34-9.8,5.04-14.14,1.57-4.34-3.47-5.04-9.8-1.57-14.14,3.47-4.34,9.8-5.04,14.14-1.57Z"/>
    <path class="cls-9" d="M235.57,351.81c-.5.98-.79,2.03-.89,3.1l-1.64.34.36,3.2,1.67-.03c.33,1.01.85,1.98,1.55,2.82l-.91,1.39,2.52,2.01,1.16-1.2c.98.5,2.03.79,3.1.89l.34,1.64,3.2-.36-.03-1.67c1.01-.33,1.98-.85,2.82-1.55l1.39.91,2.01-2.52-1.2-1.16c.5-.98.79-2.03.89-3.1l1.64-.34-.36-3.2-1.67.03c-.33-1.01-.85-1.97-1.55-2.82l.91-1.39-2.52-2.01-1.16,1.2c-.98-.5-2.03-.79-3.1-.89l-.34-1.64-3.2.36.03,1.67c-1.01.33-1.98.85-2.82,1.55l-1.39-.91-2.01,2.52,1.2,1.16ZM245.98,352.29c1.78,1.42,2.07,4.02.64,5.8-1.42,1.78-4.02,2.07-5.8.64-1.78-1.42-2.07-4.02-.64-5.8,1.42-1.78,4.02-2.07,5.8-.64Z"/>
    <g>
      <circle class="cls-21" cx="421.15" cy="202.11" r="42.78" transform="translate(-19.56 356.99) rotate(-45)"/>
      <circle class="cls-11" cx="421.15" cy="202.11" r="34.49" transform="translate(22.12 444.99) rotate(-56.96)"/>
      <circle class="cls-9" cx="421.15" cy="202.11" r="24.13" transform="translate(-44.95 171) rotate(-21.82)"/>
      <circle class="cls-7" cx="421.15" cy="202.11" r="15.27" transform="translate(64.84 504.2) rotate(-65.93)"/>
      <path class="cls-9" d="M427.06,200.94c.57,3.28-1.62,6.4-4.89,6.97-3.28.57-6.4-1.62-6.97-4.89s1.62-6.4,4.89-6.97c3.28-.57,6.4,1.62,6.97,4.89Z"/>
      <path class="cls-21" d="M460.12,171.33l.03-1.71c.02-1.27.61-2.45,1.59-3.25l5.14-4.16-1.02,4.68-5.74,4.45Z"/>
      <path class="cls-21" d="M460.08,171.09l1.64.51c1.21.38,2.52.2,3.59-.48l5.58-3.55-4.76-.51-6.04,4.03Z"/>
      <path class="cls-7" d="M421.59,202.16c5.21-4.04,10.41-8.07,15.62-12.11,8.29-6.43,16.58-12.86,24.88-19.29,1.9-1.47,3.79-2.94,5.69-4.42.76-.59-.31-1.65-1.06-1.06-5.21,4.04-10.41,8.07-15.62,12.11-8.29,6.43-16.58,12.86-24.88,19.29-1.9,1.47-3.8,2.94-5.69,4.41-.76.59.31,1.65,1.06,1.06h0Z"/>
    </g>
    <g>
      <path class="cls-9" d="M93.7,75.01s13.91,12.28,17.67,1.86c0,0,.7-3.15,2.61-7.1,1.91-3.95,4.14-10.49-2.92-15.05s-17.24-9.15-17.24-9.15l-13.28,19.16s5.37,5.19,6.36,13.39c.86,7.09.3,9.36,1.16,9.3.87-.06,3.33-.99,4.9-4.69,1.57-3.69.74-7.73.74-7.73Z"/>
      <rect class="cls-7" x="71.33" y="35.47" width="17.62" height="29.27" transform="translate(117.47 136.95) rotate(-145.28)"/>
    </g>
    <g>
      <path class="cls-9" d="M157.46,20.57s-21.57-12.41-23.72,2.29c0,0-.07,4.32-1.53,10.02-1.46,5.7-2.63,14.89,7.87,19,10.5,4.11,25.1,7.4,25.1,7.4l12.32-28.73s-8.44-5.38-11.94-15.89c-3.03-9.09-2.9-12.22-4.02-11.91-1.12.31-4.1,2.19-5.18,7.47-1.07,5.27,1.1,10.36,1.1,10.36Z"/>
      <rect class="cls-7" x="170.13" y="30.03" width="23.62" height="39.25" transform="translate(34.28 -67.67) rotate(23.2)"/>
    </g>
    <path class="cls-9" d="M263.89,139.17c-.98,1.93-1.56,4-1.75,6.08l-3.21.67.7,6.29,3.28-.05c.65,1.99,1.66,3.88,3.05,5.55l-1.8,2.74,4.94,3.95,2.28-2.35c1.93.98,4,1.56,6.08,1.75l.67,3.21,6.29-.7-.05-3.28c1.99-.65,3.88-1.66,5.55-3.05l2.74,1.8,3.95-4.94-2.35-2.28c.98-1.93,1.56-4,1.75-6.08l3.21-.67-.7-6.29-3.28.05c-.65-1.99-1.66-3.88-3.05-5.55l1.8-2.74-4.94-3.95-2.28,2.35c-1.93-.98-4-1.56-6.08-1.75l-.67-3.21-6.29.7.05,3.28c-1.99.65-3.88,1.66-5.55,3.05l-2.74-1.8-3.95,4.94,2.35,2.28ZM284.36,140.12c3.5,2.8,4.06,7.9,1.27,11.4-2.8,3.5-7.9,4.06-11.4,1.27-3.5-2.8-4.06-7.9-1.27-11.4,2.8-3.5,7.9-4.06,11.4-1.27Z"/>
    <path class="cls-9" d="M38.47,215.87c-.98,1.93-1.56,4-1.75,6.08l-3.21.67.7,6.29,3.28-.05c.65,1.99,1.66,3.88,3.05,5.55l-1.8,2.74,4.94,3.95,2.28-2.35c1.93.98,4,1.56,6.08,1.75l.67,3.21,6.29-.7-.05-3.28c1.99-.65,3.88-1.66,5.55-3.05l2.74,1.8,3.95-4.94-2.35-2.28c.98-1.93,1.56-4,1.75-6.08l3.21-.67-.7-6.29-3.28.05c-.65-1.99-1.66-3.88-3.05-5.55l1.8-2.74-4.94-3.95-2.28,2.35c-1.93-.98-4-1.56-6.08-1.75l-.67-3.21-6.29.7.05,3.28c-1.99.65-3.88,1.66-5.55,3.05l-2.74-1.8-3.95,4.94,2.35,2.28ZM58.94,216.82c3.5,2.8,4.06,7.9,1.27,11.4-2.8,3.5-7.9,4.06-11.4,1.27-3.5-2.8-4.06-7.9-1.27-11.4,2.8-3.5,7.9-4.06,11.4-1.27Z"/>
    <path class="cls-9" d="M233.38,145.47c-.5.98-.79,2.03-.89,3.1l-1.64.34.36,3.2,1.67-.03c.33,1.01.85,1.98,1.55,2.82l-.91,1.39,2.52,2.01,1.16-1.2c.98.5,2.03.79,3.1.89l.34,1.64,3.2-.36-.03-1.67c1.01-.33,1.98-.85,2.82-1.55l1.39.91,2.01-2.52-1.2-1.16c.5-.98.79-2.03.89-3.1l1.64-.34-.36-3.2-1.67.03c-.33-1.01-.85-1.98-1.55-2.82l.91-1.39-2.52-2.01-1.16,1.2c-.98-.5-2.03-.79-3.1-.89l-.34-1.64-3.2.36.03,1.67c-1.01.33-1.98.85-2.82,1.55l-1.39-.91-2.01,2.52,1.2,1.16ZM243.8,145.95c1.78,1.42,2.07,4.02.64,5.8-1.42,1.78-4.02,2.07-5.8.64-1.78-1.42-2.07-4.02-.64-5.8,1.42-1.78,4.02-2.07,5.8-.64Z"/>
    <path class="cls-7" d="M207.79,112.94c-.5.98-.79,2.03-.89,3.1l-1.64.34.36,3.2,1.67-.03c.33,1.01.85,1.98,1.55,2.82l-.91,1.39,2.52,2.01,1.16-1.2c.98.5,2.03.79,3.1.89l.34,1.64,3.2-.36-.03-1.67c1.01-.33,1.98-.85,2.82-1.55l1.39.91,2.01-2.52-1.2-1.16c.5-.98.79-2.03.89-3.1l1.64-.34-.36-3.2-1.67.03c-.33-1.01-.85-1.98-1.55-2.82l.91-1.39-2.52-2.01-1.16,1.2c-.98-.5-2.03-.79-3.1-.89l-.34-1.64-3.2.36.03,1.67c-1.01.33-1.98.85-2.82,1.55l-1.39-.91-2.01,2.52,1.2,1.16ZM218.2,113.42c1.78,1.42,2.07,4.02.64,5.8-1.42,1.78-4.02,2.07-5.8.64-1.78-1.42-2.07-4.02-.64-5.8,1.42-1.78,4.02-2.07,5.8-.64Z"/>
  </g>
  <g id="Background_simple" data-name="Background simple">
    <g>
      <path class="cls-2" d="M182.53,65.28c-21.56,2.85-42.36,8.91-60.8,18.41-21.74,11.2-43.95,28.66-37.39,51.49,12.11,42.15,70.21,42.92,58.61,71.26-13.14,32.1-4.33,69.76,54.63,80.23,111.98,19.89,247.35-96.48,209.33-160.43-23.67-39.81-109.88-76.07-224.38-60.96Z"/>
      <path class="cls-4" d="M182.53,65.28c-21.56,2.85-42.36,8.91-60.8,18.41-21.74,11.2-43.95,28.66-37.39,51.49,12.11,42.15,70.21,42.92,58.61,71.26-13.14,32.1-4.33,69.76,54.63,80.23,111.98,19.89,247.35-96.48,209.33-160.43-23.67-39.81-109.88-76.07-224.38-60.96Z"/>
    </g>
  </g>
  <g id="Shadow">
    <ellipse class="cls-8" cx="253.54" cy="435.06" rx="214.87" ry="9.79"/>
  </g>
  <g id="Plant">
    <g>
      <path class="cls-2" d="M294.25,397.3c2.31-.13,4.48-1.25,6.18-2.81,1.7-1.56,2.96-3.55,4.01-5.61,2.77-5.47,4.11-11.66,3.85-17.79-.06-1.31-.19-2.66-.76-3.84-.56-1.19-1.63-2.21-2.93-2.4-1.94-.28-3.64,1.27-4.87,2.8-5.6,6.93-8.49,16.01-7.91,24.9.14,2.18.87,4.28,2.43,4.74"/>
      <path class="cls-2" d="M283.93,385.25c1.9-3.94,2.04-8.61.78-12.8-1.25-4.19-3.83-7.91-7.02-10.9-3.5-3.28-7.99-5.8-12.78-5.82-2.04-.01-4.26.54-5.51,2.15-1.34,1.72-1.23,4.16-.64,6.26.96,3.43,3,6.49,5.43,9.09,2.43,2.6,5.26,4.8,8.09,6.97,3.18,2.45,6.62,4.98,10.63,5.29"/>
      <path class="cls-2" d="M283.65,398.54c-.56-4.43-4-8.09-8.02-10.02s-8.58-2.41-13.03-2.63c-.99-.05-2.01-.09-2.96.21s-1.83.99-2.09,1.95c-.33,1.26.46,2.52,1.3,3.52,4.88,5.86,12.52,9.32,20.15,9.12.88-.02,1.78-.1,2.6-.43.81-.34,1.54-.98,1.79-1.83"/>
      <path class="cls-17" d="M303.88,368.12c-6.82,16.67-11.88,34.01-15.11,51.73-.09.47.64.67.72.2,3.22-17.72,8.29-35.06,15.11-51.73.18-.45-.54-.64-.72-.2h0Z"/>
      <path class="cls-17" d="M289.21,414.71c.26-8.15-.4-16.39-2.72-24.24-2.28-7.73-6.21-14.88-11.58-20.9-3.39-3.8-7.29-7.09-11.48-9.96-.4-.27-.77.38-.38.65,7.14,4.9,13.34,11.1,17.69,18.63,3.93,6.81,6.21,14.46,7.17,22.24.56,4.51.69,9.05.54,13.59-.02.48.73.48.75,0h0Z"/>
      <path class="cls-17" d="M288.77,403.18c-6.39-7.41-15.31-12.57-24.94-14.29-.47-.08-.67.64-.2.72,9.52,1.71,18.3,6.78,24.61,14.1.32.37.84-.17.53-.53h0Z"/>
      <g>
        <path class="cls-2" d="M274.31,420.47v-9.58h26.69v9.58s.51,16.94-8.9,18.48h-8.9c-9.41-1.54-8.9-18.48-8.9-18.48Z"/>
        <path class="cls-20" d="M274.31,420.47v-9.58h26.69v9.58s.51,16.94-8.9,18.48h-8.9c-9.41-1.54-8.9-18.48-8.9-18.48Z"/>
      </g>
    </g>
  </g>
  <g id="Hand">
    <g>
      <path class="cls-2" d="M157.2,355.98s-22.09,7.94-12.83,18.46c0,0,3.06,2.69,6.28,7.21,3.21,4.53,9.11,10.97,18.47,5.93,9.36-5.05,20.64-13.54,20.64-13.54l-13.15-26.39s-9.03,2.79-18.72-1.11c-8.38-3.37-10.56-5.37-11.02-4.38-.46,1-.93,4.29,2.21,8.28,3.14,3.99,8.12,5.53,8.12,5.53Z"/>
      <path class="cls-16" d="M157.2,355.98s-22.09,7.94-12.83,18.46c0,0,3.06,2.69,6.28,7.21,3.21,4.53,9.11,10.97,18.47,5.93,9.36-5.05,20.64-13.54,20.64-13.54l-13.15-26.39s-9.03,2.79-18.72-1.11c-8.38-3.37-10.56-5.37-11.02-4.38-.46,1-.93,4.29,2.21,8.28,3.14,3.99,8.12,5.53,8.12,5.53Z"/>
      <rect class="cls-2" x="181.91" y="337.6" width="22.28" height="37.03" transform="translate(-138.58 123.51) rotate(-26.49)"/>
      <path class="cls-11" d="M190.6,346.63c0,1.5-1.22,2.72-2.72,2.72s-2.72-1.22-2.72-2.72,1.22-2.72,2.72-2.72,2.72,1.22,2.72,2.72Z"/>
    </g>
  </g>
  <g id="Window">
    <g>
      <g>
        <rect class="cls-2" x="131.27" y="147.98" width="215.87" height="173.27" rx="6.12" ry="6.12"/>
        <rect class="cls-16" x="131.27" y="147.98" width="215.87" height="173.27" rx="6.12" ry="6.12"/>
        <rect class="cls-2" x="201.18" y="174.27" width="130.96" height="35.08" rx="2.44" ry="2.44"/>
        <path class="cls-17" d="M205,231.34h125.17c1.93,0,1.93-3,0-3h-125.17c-1.93,0-1.93,3,0,3h0Z"/>
        <path class="cls-17" d="M205,239.39h125.17c1.93,0,1.93-3,0-3h-125.17c-1.93,0-1.93,3,0,3h0Z"/>
        <path class="cls-17" d="M205,272.96h125.17c1.93,0,1.93-3,0-3h-125.17c-1.93,0-1.93,3,0,3h0Z"/>
        <path class="cls-17" d="M205,281.72h125.17c1.93,0,1.93-3,0-3h-125.17c-1.93,0-1.93,3,0,3h0Z"/>
        <path class="cls-17" d="M205,289.7h75.75c1.93,0,1.93-3,0-3h-75.75c-1.93,0-1.93,3,0,3h0Z"/>
        <path class="cls-17" d="M205,264.91h125.17c1.93,0,1.93-3,0-3h-125.17c-1.93,0-1.93,3,0,3h0Z"/>
        <path class="cls-17" d="M205,247.43h63.61c1.93,0,1.93-3,0-3h-63.61c-1.93,0-1.93,3,0,3h0Z"/>
        <rect class="cls-23" x="145.96" y="219.05" width="49.07" height="83.21" rx="5.13" ry="5.13"/>
        <circle class="cls-2" cx="168.91" cy="191.81" r="17.19" transform="translate(-61.04 80.25) rotate(-22.75)"/>
        <circle class="cls-23" cx="142.58" cy="159.13" r="3.38"/>
        <circle class="cls-23" cx="151.73" cy="159.13" r="3.38"/>
        <circle class="cls-23" cx="160.87" cy="159.13" r="3.38"/>
        <path class="cls-11" d="M202.92,193.54c6.72-4.05,14.51-7.13,22.37-7.9,3.79-.37,7.73-.02,11.05,1.98,2.98,1.79,5.47,5.07,5.02,8.72-.23,1.88-1.42,3.56-3.29,4.09-1.57.45-3.11-.19-3.92-1.6-1.49-2.61-.38-5.8,1.65-7.75,5.28-5.06,13.25-2.86,19.03-.12,6.45,3.06,13.19,7.37,20.67,6.05,2.83-.5,5.73-2.04,7.14-4.64,1.25-2.3.93-5.08-.83-7.04-1.73-1.92-4.51-2.2-6.5-.5-2.29,1.96-2.44,5.22-1.22,7.8,2.66,5.65,9.87,8.3,15.73,6.95,6.43-1.48,10.46-7.22,15.64-10.81,5.53-3.83,12.74-4.69,19.07-2.47,1.62.57,3.14,1.36,4.57,2.31.8.54,1.56-.76.76-1.3-5.37-3.59-12.23-4.63-18.46-2.95-3.1.83-5.86,2.37-8.36,4.35-2.63,2.08-4.96,4.52-7.67,6.5-2.78,2.03-5.92,3.37-9.41,3.2-3.38-.17-6.7-1.66-8.97-4.17-1.3-1.44-2.36-3.37-2.17-5.37.16-1.66,1.32-3.42,3.06-3.69,1.55-.24,2.88.88,3.54,2.2.75,1.48.61,3.1-.25,4.5-1.9,3.1-5.97,4.01-9.36,3.82-4.04-.23-7.85-1.9-11.43-3.68-6.07-3.02-12.55-6.69-19.57-5.14-5.07,1.12-10.31,5.72-8.51,11.41.78,2.46,3.02,4.15,5.65,3.66,3.04-.56,4.91-3.4,4.94-6.38.07-6.92-7.02-11.02-13.13-11.54-3.95-.34-7.98.43-11.79,1.44-3.68.97-7.27,2.3-10.71,3.95-1.76.84-3.47,1.78-5.13,2.78-.83.5-.07,1.8.76,1.3h0Z"/>
      </g>
      <rect class="cls-23" x="202.82" y="213.99" width="20.89" height="5.06" rx="1.32" ry="1.32"/>
      <rect class="cls-23" x="228.29" y="213.99" width="30" height="5.06" rx="1.32" ry="1.32"/>
      <rect class="cls-23" x="263" y="213.99" width="21.4" height="5.06" rx="1.32" ry="1.32"/>
    </g>
  </g>
  <g id="Stars">
    <g>
      <rect class="cls-2" x="122.04" y="87.35" width="137.29" height="42.37" rx="5.77" ry="5.77"/>
      <rect class="cls-2" x="122.04" y="87.35" width="137.29" height="42.37" rx="5.77" ry="5.77"/>
      <rect class="cls-16" x="122.04" y="87.35" width="137.29" height="42.37" rx="5.77" ry="5.77"/>
      <path class="cls-2" d="M145.84,96.81l2.8,5.67c.24.49.71.83,1.25.91l6.25.91c1.36.2,1.91,1.88.92,2.84l-4.53,4.41c-.39.38-.57.93-.48,1.47l1.07,6.23c.23,1.36-1.19,2.4-2.41,1.75l-5.59-2.94c-.48-.25-1.06-.25-1.55,0l-5.59,2.94c-1.22.64-2.65-.39-2.41-1.75l1.07-6.23c.09-.54-.09-1.09-.48-1.47l-4.53-4.41c-.99-.96-.44-2.64.92-2.84l6.25-.91c.54-.08,1.01-.42,1.25-.91l2.8-5.67c.61-1.24,2.37-1.24,2.98,0Z"/>
      <path class="cls-2" d="M177.46,96.81l2.8,5.67c.24.49.71.83,1.25.91l6.25.91c1.36.2,1.91,1.88.92,2.84l-4.53,4.41c-.39.38-.57.93-.48,1.47l1.07,6.23c.23,1.36-1.19,2.4-2.41,1.75l-5.59-2.94c-.48-.25-1.06-.25-1.55,0l-5.59,2.94c-1.22.64-2.65-.39-2.41-1.75l1.07-6.23c.09-.54-.09-1.09-.48-1.47l-4.53-4.41c-.99-.96-.44-2.64.92-2.84l6.25-.91c.54-.08,1.01-.42,1.25-.91l2.8-5.67c.61-1.24,2.37-1.24,2.98,0Z"/>
      <path class="cls-2" d="M209.08,96.81l2.8,5.67c.24.49.71.83,1.25.91l6.25.91c1.36.2,1.91,1.88.92,2.84l-4.53,4.41c-.39.38-.57.93-.48,1.47l1.07,6.23c.23,1.36-1.19,2.4-2.41,1.75l-5.59-2.94c-.48-.25-1.06-.25-1.55,0l-5.59,2.94c-1.22.64-2.65-.39-2.41-1.75l1.07-6.23c.09-.54-.09-1.09-.48-1.47l-4.53-4.41c-.99-.96-.44-2.64.92-2.84l6.25-.91c.54-.08,1.01-.42,1.25-.91l2.8-5.67c.61-1.24,2.37-1.24,2.98,0Z"/>
      <path class="cls-2" d="M240.7,96.81l2.8,5.67c.24.49.71.83,1.25.91l6.25.91c1.36.2,1.91,1.88.92,2.84l-4.53,4.41c-.39.38-.57.93-.48,1.47l1.07,6.23c.23,1.36-1.19,2.4-2.41,1.75l-5.59-2.94c-.48-.25-1.06-.25-1.55,0l-5.59,2.94c-1.22.64-2.65-.39-2.41-1.75l1.07-6.23c.09-.54-.09-1.09-.48-1.47l-4.53-4.41c-.99-.96-.44-2.64.92-2.84l6.25-.91c.54-.08,1.01-.42,1.25-.91l2.8-5.67c.61-1.24,2.37-1.24,2.98,0Z"/>
    </g>
  </g>
  <g id="Speech_Bubble_3" data-name="Speech Bubble 3">
    <g>
      <path class="cls-2" d="M443.66,112.16c3.92-1.88,5.32-7.32,3.38-11.2-1.94-3.88-6.51-6.03-10.85-5.82-4.34.22-8.38,2.49-11.47,5.54-3.1-3.81-9.36-4.5-13.22-1.46-3.79,2.99-3.16,9.11-.31,13.03-3.34,1.63-5.56,5.62-4.74,9.3,1.01,4.54,6.38,7.55,10.78,6.03,0,5.88,5.24,11.26,11.12,11.38,5.87.13,11.36-5.02,11.61-10.89,4.48,2.08,10.52-.86,11.64-5.67,1.12-4.81-2.98-10.12-7.92-10.24Z"/>
      <path class="cls-2" d="M415.62,134.1c0,1.38-1.12,2.5-2.5,2.5s-2.5-1.12-2.5-2.5,1.12-2.5,2.5-2.5,2.5,1.12,2.5,2.5Z"/>
      <g class="cls-29">
        <path class="cls-11" d="M443.66,112.16c3.92-1.88,5.32-7.32,3.38-11.2-1.94-3.88-6.51-6.03-10.85-5.82-4.34.22-8.38,2.49-11.47,5.54-3.1-3.81-9.36-4.5-13.22-1.46-3.79,2.99-3.16,9.11-.31,13.03-3.34,1.63-5.56,5.62-4.74,9.3,1.01,4.54,6.38,7.55,10.78,6.03,0,5.88,5.24,11.26,11.12,11.38,5.87.13,11.36-5.02,11.61-10.89,4.48,2.08,10.52-.86,11.64-5.67,1.12-4.81-2.98-10.12-7.92-10.24Z"/>
      </g>
      <path class="cls-16" d="M415.62,134.1c0,1.38-1.12,2.5-2.5,2.5s-2.5-1.12-2.5-2.5,1.12-2.5,2.5-2.5,2.5,1.12,2.5,2.5Z"/>
      <path class="cls-2" d="M428.39,117.78c.35-.59.86-1.24,1.52-1.96.49-.52.85-.96,1.08-1.32.23-.36.35-.76.35-1.22,0-.64-.22-1.15-.66-1.53-.44-.37-1.02-.56-1.75-.56s-1.32.17-1.86.51c-.54.34-1,.81-1.37,1.42l-2.69-1.85c.62-1.11,1.46-1.98,2.52-2.59,1.06-.61,2.32-.91,3.77-.91,1.7,0,3.07.43,4.1,1.28,1.03.85,1.55,2.04,1.55,3.55,0,.71-.1,1.34-.3,1.88-.2.54-.44,1-.73,1.37-.29.37-.66.81-1.12,1.29-.55.57-.95,1.06-1.2,1.45-.25.39-.38.87-.38,1.42h-3.36c0-.91.17-1.65.52-2.25ZM428.03,125.7c-.41-.41-.61-.92-.61-1.51s.2-1.09.6-1.49c.4-.4.91-.6,1.53-.6s1.13.2,1.53.6c.4.4.6.89.6,1.49s-.2,1.1-.61,1.51c-.41.41-.92.62-1.52.62s-1.12-.21-1.52-.62Z"/>
    </g>
  </g>
  <g id="Speech_Bubble_1" data-name="Speech Bubble 1">
    <g>
      <rect class="cls-2" x="54.62" y="91.48" width="42.38" height="33.85" rx="9.12" ry="9.12"/>
      <g>
        <path class="cls-11" d="M82.24,109.17c0,1.62,1.32,2.94,2.94,2.94s2.94-1.32,2.94-2.94-1.32-2.94-2.94-2.94-2.94,1.32-2.94,2.94Z"/>
        <path class="cls-11" d="M72,109.17c0,1.62,1.32,2.94,2.94,2.94s2.94-1.32,2.94-2.94-1.32-2.94-2.94-2.94-2.94,1.32-2.94,2.94Z"/>
        <path class="cls-11" d="M61.84,109.17c0,1.62,1.32,2.94,2.94,2.94s2.94-1.32,2.94-2.94-1.32-2.94-2.94-2.94-2.94,1.32-2.94,2.94Z"/>
      </g>
      <polygon class="cls-2" points="83.95 124.03 90.87 130.95 92.29 122.11 83.95 124.03"/>
    </g>
  </g>
  <g id="Character_3" data-name="Character 3">
    <g>
      <circle class="cls-2" cx="336.97" cy="71.96" r="62.03"/>
      <circle class="cls-19" cx="336.97" cy="71.96" r="62.03"/>
      <path class="cls-2" d="M356.38,55.55l-13.97-3.07-13.76-.48c-.02-.37-14.6.38-16.25,3.06-1.22,1.98-3.35,46.13-5.58,71.25,9.39,5.72,18.26,7.76,30.06,7.76,9.24,0,18-2.03,25.87-5.66-.91-17.75-2.3-47.08-1.89-54.05.6-10.21-4.49-18.81-4.49-18.81Z"/>
      <g>
        <g>
          <path class="cls-22" d="M312.96,78.25c-.71,1.18-10.09,28.12-23.26,26.88-11.64-1.1-25.67-27.93-25.67-27.93l5.6-5.62s15.19,18.04,19.5,18.83c3.6.66,16.19-24.57,16.19-24.57l7.64,12.41Z"/>
          <path class="cls-22" d="M253.52,69.75c.07-.33.99-1.36.99-1.36,0,0-.37-.74-.39-1.11-.05-1.05.94-1.84,1.9-2.28-.25-.28-.2-2.61,1.76-2.45-.69-1.27,1.05-3.19,2.74-2.35.77.38,3.9,2.9,4.82,3.49h0c.33-1.45,1.04-2.7,2.11-3.91.36-.41,1.66-1.01,2.21-.93.55.08.25.66.28,1.21.04.54-.6,1.86-.69,2.4-.73,4.43-.12,6.97.69,10.66l-5.6,4.84c-3.9-2.36-3.74-2.99-8.24-4.87-1.61-.67-2.89-1.72-2.57-3.33Z"/>
          <path class="cls-14" d="M257.78,62.76c.58.44,1.19.85,1.84,1.2.6.33,1.28.73,1.98.79.6.05,1.16-.27,1.45-.79.33-.58.28-1.29.04-1.9-.1-.27-.54-.15-.43.12.21.53.28,1.15-.05,1.64-.35.52-.93.56-1.49.36-.55-.19-1.09-.5-1.59-.79-.53-.31-1.03-.65-1.52-1.02-.23-.18-.45.21-.23.39h0Z"/>
          <path class="cls-14" d="M260.76,64.79c.41.35.58.95.31,1.44-.28.51-.84.69-1.39.55-.61-.15-1.19-.49-1.75-.78-.58-.3-1.15-.63-1.71-.98-.25-.15-.47.23-.23.39.7.44,1.41.84,2.15,1.21.66.32,1.4.76,2.16.64.59-.09,1.09-.53,1.27-1.09.2-.61-.03-1.29-.51-1.7-.22-.19-.54.13-.32.32h0Z"/>
          <path class="cls-14" d="M259.34,67.37c.43.3.66.87.5,1.38-.17.57-.71.92-1.29.9-.64-.02-1.28-.35-1.87-.57-.66-.25-1.31-.5-1.97-.75-.27-.1-.39.33-.12.43.84.32,1.68.64,2.53.97.69.26,1.45.55,2.17.24,1.26-.53,1.37-2.23.28-2.99-.24-.17-.46.22-.23.39h0Z"/>
          <path class="cls-14" d="M258.16,70.02c.28.22.39.56.35.91-.05.37-.29.67-.61.85-.82.48-1.79.15-2.55-.28-.25-.14-.48.25-.23.39.94.52,2.16.87,3.12.2.4-.28.66-.68.71-1.17.05-.45-.11-.94-.48-1.23-.1-.08-.22-.09-.32,0-.08.08-.1.24,0,.32h0Z"/>
          <path class="cls-14" d="M264.96,64.48c-2.29,2.03-2.87,5.39-1.43,8.09.14.26.53.03.39-.23-1.35-2.53-.78-5.64,1.36-7.54.22-.19-.1-.51-.32-.32h0Z"/>
        </g>
        <g>
          <path class="cls-2" d="M326.25,61.56c-2.28,7.5-12.58,28.86-12.58,28.86l-19.42-10.93s8.02-16.15,14.12-22.23c9.35-7.42,20.82-5.37,17.89,4.3Z"/>
          <polygon class="cls-3" points="308.28 87.38 310.28 70.95 302.27 84 308.28 87.38"/>
        </g>
        <g>
          <path class="cls-22" d="M329.05,39.89l14.92-7.94c-.11,1.07-.15,3.12-1.02,4.26-7.64,9.98-1.72,16.23-1.72,16.23-4.03,2.97-12.99,4.36-14.76-.32,1.26-2.49,2.7-8.86,2.58-12.23Z"/>
          <path class="cls-10" d="M328.5,44.59l8.38-1.33c-.92,2.52-3.39,5.42-9.15,5.29,0,0,.76-2.84.77-3.97Z"/>
          <path class="cls-17" d="M319.63,13.71c-1.9,3.21-1.56,11.49,3.82,10.31,5.39-1.18-.55-15.83-3.82-10.31Z"/>
          <path class="cls-22" d="M344.53,24.99c-1.56,9.03-2.25,14.16-7.36,18.28-22.01,13.61-26.31-27.32-8.43-32.74,9.17-2.52,17.35,5.42,15.79,14.46Z"/>
          <path class="cls-17" d="M350.44,15.11s-8.22-1.15-9.6-1.26-2.79,4.82-2.59,6.42c.2,1.6,2.36,2.3,2.3,3.83-.07,1.3-2.25,5.1-1.47,6.86.89.7,5.77-2.22,5.77-2.22l2.86,1.05s8.2-10.99,2.73-14.68Z"/>
          <path class="cls-17" d="M350.29,15.82c.86-.77,1.79-2.11.77-4.61,0,.68-.86,1.49-1.39,1.77-.53-2.06-3.21-5.61-10.75-7.29-9.28-2.06-11.71,1.07-14.41-.32-2.71-1.39.68-2.47.68-2.47,0,0-4.68-1.08-6.19,2.45-1.51,3.54-.21,9.75,8.07,9.36,8.27-.39,9.89,2.3,14.06,1.64,3.04-.38,6.11-.55,9.17-.53Z"/>
          <path class="cls-22" d="M347.29,32.8c-1.6,4.75-9.87,7.34-8.82.24.61-6.91,10.88-8.61,8.82-.24Z"/>
          <path class="cls-17" d="M331.09,25.97c0,2.21-2.26,2.15-2.22-.04,0-2.21,2.26-2.15,2.22.04Z"/>
          <path class="cls-17" d="M322.31,26.41c0,2.21-2.26,2.15-2.22-.04,0-2.21,2.26-2.15,2.22.04Z"/>
          <path class="cls-14" d="M325.11,25.18s-3.45,4.3-4.6,6.08c1.17,1.31,3.46,1.02,3.46,1.02l1.15-7.1Z"/>
          <path class="cls-17" d="M333.98,22.05c-.15.04-.31,0-.43-.11-1.41-1.37-2.99-1.04-3-1.04-1.92-.85,1.63-1.7,3.61.42.24.22.13.65-.18.73Z"/>
          <path class="cls-27" d="M345.49,30.22c-1.51-2.11-4.19.39-4.45,2.27"/>
          <path class="cls-17" d="M318.48,21c-.32-.1-.41-.56-.14-.76,1.9-1.5,3.8-.85,3.89-.83.53.17.26,1.02-.27.83-.29-.33-1.97-.01-3.48.76Z"/>
          <path class="cls-17" d="M325.2,35.39c.83,1.01,1.58,2.08,2.25,3.21.21-.08.43-.16.64-.26,2.9-1.19,3.85-2.69,4.02-4,.07-.64-.01-1.29-.24-1.9-.12-.34-.29-.67-.5-.97-1.16,1.55-3.77,2.86-5.19,3.5-.63.25-.98.42-.98.42Z"/>
          <path class="cls-11" d="M326.18,34.95l.69.93c2.72-1.12,4.48-2.27,5-3.46-.12-.34-.29-.67-.5-.97-1.17,1.56-3.77,2.86-5.19,3.5Z"/>
          <path class="cls-18" d="M328.05,38.36c2.9-1.19,3.85-2.69,4.02-4-1.09.47-2.09,1.13-2.95,1.95-.56.56-.93,1.27-1.06,2.05Z"/>
        </g>
        <path class="cls-5" d="M308.61,86.74c.91-6.29,1.83-12.59,2.74-18.88.07-.47-.65-.68-.72-.2l-2.74,18.88c-.07.47.65.68.72.2h0Z"/>
        <g>
          <path class="cls-22" d="M375.38,115.4c-.65-7.37-4.93-32.01-8.14-43.84-.85-3.15-3.61-5.73-7.11-6.3-1.33-.21-2.71-.12-3.92.6-4.04,2.4-4.77,10.32-2.91,17.05,2.14,7.73,6.52,19.56,8.7,30.08.18.88.33,7.76.45,15.6,4.52-1.95,8.78-4.68,12.74-7.74.23-2.48.3-4.25.2-5.44Z"/>
          <path class="cls-2" d="M367.07,65.28c3.71,9.43,7.77,24.3,7.77,24.3l-21.05,4.77c-2.41-7.43-5.41-15.54-4.7-23.32,1.1-10.58,2.12-17.13,8.61-15.19,3.29.98,7.18,3.88,9.37,9.44Z"/>
        </g>
        <path class="cls-5" d="M374.74,89.22c-6.65,1.59-13.3,3.18-19.95,4.77.15.09.31.17.46.26-1.39-6.48-2.79-12.95-4.18-19.43-.1-.47-.82-.27-.72.2,1.39,6.48,2.79,12.95,4.18,19.43.04.2.27.31.46.26,6.65-1.59,13.3-3.18,19.95-4.77.47-.11.27-.84-.2-.72h0Z"/>
        <g class="cls-30">
          <path class="cls-5" d="M347.31,120.36c-11.2-6.53-21.29-14.83-29.87-24.55-.32-.36-.85.17-.53.53,8.62,9.76,18.77,18.1,30.02,24.66.42.24.8-.4.38-.65h0Z"/>
        </g>
      </g>
    </g>
  </g>
  <g id="_Speech_Bubble_2" data-name=" Speech Bubble 2">
    <g>
      <g>
        <path class="cls-2" d="M265.9,31.93c-6.59-9-4.52-21.58,4.61-28.1,9.13-6.52,21.88-4.52,28.46,4.48,5.08,6.94,4.99,16.02.49,22.8l1.58,5.83-6.42-.74c-.09.07-.17.14-.26.21-9.13,6.52-21.88,4.52-28.46-4.48Z"/>
        <path class="cls-26" d="M265.17,5.36c-4.9,4.42-7.32,11.37-6.19,17.81"/>
        <path class="cls-26" d="M259.59,26.11c.1.99.4,1.96.9,2.83"/>
      </g>
      <polygon class="cls-11" points="282.53 28.81 272.47 21.6 274.99 18.1 281.73 22.93 290.67 11.86 294.03 14.57 282.53 28.81"/>
    </g>
  </g>
  <g id="Character_2" data-name="Character 2">
    <g>
      <g>
        <g>
          <polygon class="cls-7" points="429.2 412.64 415.82 411.83 419.7 433.62 428.37 435.4 429.2 412.64"/>
          <path class="cls-17" d="M417.75,429.68l3.31-.02c.75,0,1.45.35,1.92.93,2,2.47,3.4,1.53,5.38-.82,1.31-.15,1.72,1.29,1.85,1.68l2.81,8.56c.24.72-.16,1.46-.91,1.67-.13.04-.27.06-.41.05-4.02.02-5.91.03-10.91.06l-15.28.08c-4.17.02-5.19-3.98-3.49-4.36,7.65-1.67,13.03-3.86,15.33-6.02.43-.38-.04-.66.4-1.82Z"/>
          <path class="cls-2" d="M412.94,432.63c1.04-.03,2.08-.16,3.08-.4.09-.03.14-.13.1-.22-.02-.05-.06-.09-.11-.1-.47-.21-4.68-2.03-5.69-1.33-.19.12-.29.34-.25.56.02.41.24.79.6,1.03.69.38,1.48.55,2.26.47ZM415.36,432c-1.21.22-3.47.52-4.43-.14-.25-.18-.41-.45-.44-.75-.02-.09.02-.19.1-.24.56-.38,3.03.42,4.77,1.13Z"/>
          <path class="cls-2" d="M415.98,432.24s.09.01.13,0c.05-.05.07-.12.05-.19,0-.16-1.13-4.04-3.39-3.78-.56.07-.71.33-.72.55-.1,1.03,2.58,2.96,3.84,3.45l.1-.03ZM413.01,428.58c1.44,0,2.36,2.25,2.67,3.16-1.38-.67-3.33-2.28-3.23-2.91,0-.05,0-.2.41-.24h.15Z"/>
          <path class="cls-25" d="M415.55,432.13c1.14.14,2.23.79,2.88,1.71"/>
          <path class="cls-25" d="M413.56,433.61c1.14.14,2.23.79,2.88,1.71"/>
          <path class="cls-25" d="M411.05,434.87c1.14.14,2.23.79,2.88,1.71"/>
        </g>
        <g>
          <polygon class="cls-7" points="373.73 411.23 359.82 409.53 362.56 432.29 371.23 434.07 373.73 411.23"/>
          <path class="cls-17" d="M360.62,428.35l3.31-.02c.75,0,1.45.35,1.92.93,2,2.47,3.4,1.53,5.38-.82,1.31-.15,1.72,1.29,1.85,1.68l2.81,8.56c.24.72-.16,1.46-.91,1.67-.13.04-.27.06-.41.05-4.02.02-5.91.03-10.91.06l-15.28.08c-4.17.02-5.19-3.98-3.49-4.36,7.65-1.67,13.03-3.86,15.33-6.02.43-.38-.04-.66.4-1.82Z"/>
          <path class="cls-2" d="M355.8,431.3c1.04-.03,2.08-.16,3.08-.4.09-.03.14-.13.1-.22-.02-.05-.06-.09-.11-.1-.47-.21-4.68-2.03-5.69-1.33-.19.12-.29.34-.25.56.02.41.24.79.6,1.03.69.38,1.48.55,2.26.47ZM358.23,430.67c-1.21.22-3.47.52-4.43-.14-.25-.18-.41-.45-.44-.75-.02-.09.02-.19.1-.24.56-.38,3.03.42,4.77,1.13Z"/>
          <path class="cls-2" d="M358.84,430.91s.09.01.13,0c.05-.05.07-.12.05-.19,0-.16-1.13-4.04-3.39-3.78-.56.08-.71.33-.72.55-.1,1.03,2.58,2.96,3.84,3.45l.1-.03ZM355.87,427.25c1.44,0,2.36,2.25,2.67,3.16-1.38-.67-3.33-2.28-3.23-2.91,0-.05,0-.2.41-.24h.15Z"/>
          <path class="cls-25" d="M358.42,430.8c1.14.14,2.23.79,2.88,1.71"/>
          <path class="cls-25" d="M356.42,432.28c1.14.14,2.23.79,2.88,1.71"/>
          <path class="cls-25" d="M353.91,433.54c1.14.14,2.23.79,2.88,1.71"/>
        </g>
        <g>
          <path class="cls-17" d="M370.11,263.74c.05,1.03-13.99,67.36-14.82,83.55-.83,16.19,3.08,77.51,3.08,77.51l15.45-.11s3.03-27.93,2.2-39.57c-.84-11.64-1.15-29.9,2.66-40.4,3.81-10.5,16.59-45.08,16.59-45.08l-4.49-32.44-20.67-3.46Z"/>
          <path class="cls-17" d="M419.9,261.31c1.67.95,2.03,19.49,1.95,40.12-.07,20.63,5.55,58.5,6.72,71.5,1.17,13,3.19,54.49,2.66,54.52-.54.03-17.8.18-17.31-.88.49-1.05-3.59-18.85-8.73-50.33-5.05-30.87-14.47-64.3-16.41-74.72-1.52-8.2-4.43-22.33-4.43-22.33l-.78-16.12,36.34-1.77Z"/>
          <path class="cls-6" d="M421.14,268.47s-14.31,9.15-31.41,9.4c-17.1.25-21.65-3.56-21.65-3.56l.66-3.56,52.4-2.28Z"/>
          <g class="cls-30">
            <path class="cls-5" d="M398.07,338.42c-1.36-5.43-2.73-10.85-4.09-16.28-2.18-8.66-4.36-17.32-6.53-25.98-.5-2.01-1.01-4.01-1.51-6.02-.12-.47-.84-.27-.72.2,1.36,5.43,2.73,10.85,4.09,16.28,2.18,8.66,4.36,17.32,6.53,25.98.5,2.01,1.01,4.01,1.51,6.02.12.47.84.27.72-.2h0Z"/>
          </g>
        </g>
        <g>
          <path class="cls-2" d="M408.6,185.55s4.25,9.46,5.79,22.02c2.7,21.98,7.41,51.46,7.61,60.22,0,0-36.47,11.84-56.29,1.89l2.41-47.27-.7-35.14,7.54-2.74s29.29-3.5,33.63,1.03Z"/>
          <path class="cls-3" d="M408.6,185.55s4.25,9.46,5.79,22.02c2.7,21.98,7.41,51.46,7.61,60.22,0,0-36.47,11.84-56.29,1.89l2.41-47.27-.7-35.14,7.54-2.74s29.29-3.5,33.63,1.03Z"/>
          <path class="cls-3" d="M408.08,208.27s1.22,8.54,3.85,12.61c1.53,2.37,4.83,4.67,4.83,4.67l-.98-7.99-7.7-9.3Z"/>
        </g>
        <g>
          <path class="cls-2" d="M373.84,212.47c-.72.18-10.5,12.69-10.5,12.69,0,0-11.52-12.19-12.68-17.44,0,0,12.97-19.01,14.67-20.14,4.53-3.02,9.63-3.06,9.63-3.06l-1.12,27.95Z"/>
          <path class="cls-3" d="M373.84,212.47c-.72.18-10.5,12.69-10.5,12.69,0,0-11.52-12.19-12.68-17.44,0,0,12.97-19.01,14.67-20.14,4.53-3.02,9.63-3.06,9.63-3.06l-1.12,27.95Z"/>
          <path class="cls-3" d="M368.29,218.98c-.01-.44-.45-16.56-.43-15.83.02.72-2.83,19.87-2.83,19.87l3.26-4.04Z"/>
        </g>
        <g>
          <g>
            <path class="cls-15" d="M380.29,185.36c3.81-.4,3.42-5.08,2.96-8.66-.19-1.28-.48-2.54-.87-3.79l6.64-5.54,6.01-5.09c-.37,2.24-.63,4.49-.76,6.76-.33,3.92.11,7.05.62,10.81.47,1.68,1.49,2.98,2.31,4.04,0,0-6.82,5.16-11.5,5.03-4.68-.13-5.39-3.56-5.39-3.56Z"/>
            <path class="cls-3" d="M394.36,172.03s-3.94,9.47-11,5.77l-.1-1.65,11.11-4.12Z"/>
            <path class="cls-15" d="M397.9,150.68c-2.24-6.55-9.58-10.29-16.39-8.35-9.39,2.68-11.47,15.79-9.94,23.98,1.71,9.11,13.04,14.27,20.57,8.06,5.02-4.13,5.19-9.38,6.31-18.24.24-1.82.06-3.68-.55-5.44Z"/>
            <path class="cls-17" d="M368.87,147.95s.87,1.01,1.68.72c-.81-1.32-.71-2.95.26-4.11,0,0,.59,1.4,1.28,1.43.42-3.3,1.89-6.38,4.22-8.81,4.04-4.5,17.3,1.3,17.3,1.3,0,0,3.17-2.69,8.21,1.87,4.04,3.66,4.52,11.13,4.14,14.34-1.47,3.1-4.94,6.1-9.65,7.62-2.31-2.63-2.47-6.6-2.24-9.34-.7-.19-1.35-.55-1.88-1.06-2.07-1.98-.53-8.88-8.77-7.85-1.46-.89-3.3-.9-4.7-.02-2.53,1.47-3.9,9.53-7.4,7.18-3.5-2.36-2.45-3.26-2.45-3.26Z"/>
            <g>
              <path class="cls-17" d="M384.27,158.13c-.1,1.01-.87,1.71-1.58,1.58-.71-.13-1.11-1.06-.94-2.06.17-1,.89-1.71,1.58-1.58.69.13,1.11,1.04.94,2.06Z"/>
              <path class="cls-17" d="M375.48,157.14c-.1,1.01-.89,1.71-1.58,1.58-.69-.13-1.11-1.06-.94-2.06.17-1,.89-1.71,1.58-1.58.69.13,1.1,1.11.94,2.06Z"/>
              <path class="cls-17" d="M371.46,151.79c.16.08.36.08.51,0,1.04-.65,2.35-.79,3.53-.39.25.11.54,0,.65-.22.11-.23,0-.51-.24-.61,0,0,0,0,0,0-1.48-.55-3.14-.39-4.45.43-.23.13-.31.41-.17.63,0,0,0,0,0,0,.05.06.11.11.17.16Z"/>
              <path class="cls-17" d="M385.65,155.39c.1,0,.19-.05.27-.11.17-.2.13-.49-.09-.65,0,0,0,0,0,0-1.25-.93-2.9-1.23-4.42-.81-.25.09-.38.35-.29.59h0c.1.24.38.36.63.28h0c1.21-.3,2.51-.05,3.49.69.13.06.29.06.42,0Z"/>
            </g>
            <g>
              <path class="cls-15" d="M403.41,163.8c-1.01,2.23-2.92,3.97-5.32,4.82-3.18,1.11-5.13-1.58-4.56-4.6.54-2.68,2.82-6.58,6.17-6.35,3.35.23,4.91,3.37,3.71,6.13Z"/>
              <g class="cls-31">
                <path class="cls-5" d="M396.16,164.63c.13-1.06.63-2.08,1.36-2.85.61-.64,1.87-1.68,2.78-1.05.4.28.77-.37.38-.65-1.19-.83-2.74.21-3.59,1.06-.94.94-1.52,2.17-1.68,3.49-.02.2.19.38.37.38.22,0,.35-.17.37-.38h0Z"/>
              </g>
            </g>
            <path class="cls-12" d="M378.38,156.33c-1.4,2.2-3.12,4.2-5.11,5.93,1.01.99,2.41,1.52,3.84,1.45l1.28-7.38Z"/>
          </g>
          <g class="cls-30">
            <path class="cls-5" d="M383.84,143.27c-.43-1.19-.98-2.16-1.9-3.05-.83-.8-1.93-1.37-3.09-1.47-1.36-.11-2.7.51-3.63,1.48-.94.98-1.51,2.24-1.89,3.53-.14.46.59.66.72.2.59-1.96,1.79-4.12,4.02-4.43.87-.12,1.66.1,2.43.55,1.32.77,2.1,2.01,2.61,3.4.16.45.89.26.72-.2h0Z"/>
          </g>
          <g class="cls-30">
            <path class="cls-5" d="M385.73,142.67c-.31-3.05-2.5-5.73-5.45-6.61-.46-.14-.66.59-.2.72,2.6.77,4.62,3.18,4.9,5.89.05.48.8.48.75,0h0Z"/>
          </g>
        </g>
        <path class="cls-2" d="M399.3,278.05l16.45,9.1c.86.48,1.9.5,2.77.06l16.82-8.39c2.21-1.1,4.73.81,4.26,3.23l-3.57,18.46c-.19.96.11,1.96.8,2.66l13.18,13.41c1.73,1.76.69,4.75-1.76,5.05l-18.66,2.31c-.97.12-1.83.71-2.28,1.58l-8.68,16.68c-1.14,2.19-4.3,2.13-5.35-.11l-7.96-17.03c-.42-.89-1.24-1.52-2.21-1.68l-18.54-3.1c-2.44-.41-3.35-3.43-1.54-5.12l13.74-12.83c.72-.67,1.06-1.65.91-2.62l-2.78-18.59c-.37-2.44,2.23-4.25,4.39-3.05Z"/>
        <path class="cls-24" d="M426.35,283.31s-18,15.47-13.44,21.91c5.87,8.28,18.41,21.28-1.99,31.77l-2.86-6.13s6.92-3.7,6.67-10.98c-.25-7.27-7.3-9.4-6.67-18.71.63-9.32,8.74-13.16,8.74-13.16l9.55-4.7Z"/>
        <g>
          <path class="cls-15" d="M424.37,274.18l-6.82-2.04-2.43,4.86c-.32.55-.6,1.07-.83,1.5-2.02,3.94-4.77,9.55-5.05,12.88-.28,3.33,1.84,6.57,2.73,4.99.7-1.24-.2-3.53-.03-4.69.43-2.9,1.03-3.87,1.03-3.87,0,5.6,2.15,9.15,2.85,9.68.97.73,1.95-.39,1.95-.39,0,0,.95.89,2.09.15,1.39-.91-.27-7.5-.27-7.5,0,0,2.36,5.9,3.96,5.11,1.59-.78-1.22-5.87-1.55-8.92-.12-1.14,2.08-3.18,2.07-5.8,0-1.63-.47-3.92.3-5.95Z"/>
          <path class="cls-12" d="M418.08,297.03c-.71-1.7-1.42-3.43-1.67-5.27-.31-2.19.05-4.4.57-6.53.07-.28-.37-.4-.43-.12-.52,2.16-.88,4.39-.59,6.61.25,1.9.96,3.68,1.7,5.43.11.26.55.15.43-.12h0Z"/>
          <path class="cls-12" d="M419.91,289.87c-.12-.86-.28-1.72-.33-2.59-.05-.8.03-1.62.48-2.3.16-.24-.23-.47-.39-.23-.47.72-.59,1.59-.54,2.43.05.94.22,1.88.35,2.81.04.29.47.16.43-.12h0Z"/>
          <path class="cls-15" d="M426.42,205.02l-14.49,6.11c2.52,7,7.22,17.98,9.16,25.78.52,2.09-4.34,36.83-4.34,36.83l7.24,2.08s11.03-33.87,10.9-38.05c-.19-6.07-4.88-19.86-8.46-32.75Z"/>
        </g>
      </g>
      <path class="cls-2" d="M400.65,186.86c-.43,7.99,6.59,23.98,14.01,34.09,4.56.7,17.53-9.43,17.53-9.43,0,0-6.61-11.92-13.36-19.66-8.5-9.29-17.92-9.35-18.18-5Z"/>
      <g class="cls-28">
        <path class="cls-5" d="M400.65,186.86c-.43,7.99,6.59,23.98,14.01,34.09,4.56.7,17.53-9.43,17.53-9.43,0,0-6.61-11.92-13.36-19.66-8.5-9.29-17.92-9.35-18.18-5Z"/>
      </g>
      <path class="cls-3" d="M380.09,176.25c.39-.06,1.41-.8,1.16-2.78-.26-1.98-5.51-6.7-7.71-6.43s-.62,3.25-.62,3.25c0,0,5.58,5.27,5.85,5.4.84.4,1.33.57,1.33.57Z"/>
      <path class="cls-17" d="M378.04,167c-.32-.25-.68-.44-1.08-.51-.15-.03-.3-.05-.45-.01-.17.04-.32.16-.39.32-.05.11-.03.24.08.31.1.06.26.03.31-.08,0-.01.01-.03.02-.04,0,0,.03-.05.02-.03-.02.02.01-.01.02-.01.02-.02-.03.01,0,0,0,0,.02-.01.03-.02-.01,0-.03,0,0,0,.01,0,.08-.01.04-.01-.04,0,.02,0,.04,0,.02,0,.04,0,.05,0,.08,0,.11.01.2.03.3.06.57.19.81.38.1.08.23.09.32,0,.08-.08.1-.24,0-.32h0Z"/>
      <path class="cls-15" d="M378.59,170.57s-.02-.01-.03-.02l-3.5-2.7c-1.27-.93-2.96-1.02-4.32-.23l-3.09,1.76c-1.16.67-1.93,1.87-2.07,3.22l-.66,6.29c-3.22,8.6-9.84,18.81-13.81,27.71-2.07,4.96-5.1,10.44-5.84,16.06-.31,2.34.38,4.69,1.89,6.49,2.54,2.9,7.11,1.82,9.25.16h0c1.75-1.03,6.06-5.07,6.07-5.08l-3.09-3.46,4.12-15.41c1.46-6.95,4.22-13.62,6.17-19.31,4.76-2.88,8.17-8.77,8.17-8.77l1.32-1.82c1.17-1.51.91-3.7-.58-4.89ZM358.18,223.35c0,.1,0,.19-.02.19,0-.06.02-.13.02-.19Z"/>
      <path class="cls-12" d="M358.13,226.27c.71-2.07,1.32-4.17,1.83-6.3.11-.47-.61-.67-.72-.2-.51,2.13-1.13,4.23-1.83,6.3-.16.46.57.65.72.2h0Z"/>
    </g>
  </g>
  <g id="Character_1" data-name="Character 1">
    <g>
      <path class="cls-17" d="M124.15,209.62c.1.96-4.11,18.86-2.98,25s9.56,29.61,8.14,33.42c-1.42,3.82-19.37-1.49-19.37-1.49l-23.35-88.37c1.42-1.32,15.45-2.14,20.62,1.91.55.43,2.92,2.62,3.52,3.1,5.01,3.99,11.86,11.63,13.41,26.43Z"/>
      <g>
        <path class="cls-1" d="M163.38,193.56c-.22-.22,7.07.02,7.25-1.54.1-.87.04-.98-3.16-1.37-3.2-.4-12.91-.9-14.46-.46-1.55.44-2.78,6.18-3.59,7.07-.81.88-6.94,5.92-6.94,5.92l4.85,5.46,6.56-6.51s5.53.39,6.43-.38c.9-.77,1.06-2.82,1.06-2.82,0,0,2.55.4,1.67-2.56,0,0,2.27-.8.34-2.8Z"/>
        <path class="cls-13" d="M153.19,191.53c.97-.08,2.21-.19,2.93.6.75.82.66,2.26.58,3.28-.05.61-.12,1.28-.32,1.86-.21.61-.96-.11-1.2-.39-.61-.72-.79-1.74-.44-2.62.06-.15-.12-.34-.28-.28-.74.3-1.53.4-2.31.26-.28-.05-.4.38-.12.43.87.15,1.74.07,2.55-.26-.09-.09-.18-.18-.28-.28-.33.83-.23,1.78.2,2.55.3.54,1.31,1.71,2.01,1.17.39-.29.42-1,.5-1.44.1-.59.16-1.2.16-1.8,0-.99-.06-2.15-.81-2.89-.83-.81-2.11-.76-3.18-.67-.29.02-.29.47,0,.45h0Z"/>
        <path class="cls-13" d="M163.5,193.38c-1.14-.31-2.35-.32-3.51-.18-.6.07-1.2.19-1.78.36-.5.15-1.06.32-1.34.8-.15.25.24.48.39.23.27-.45.96-.57,1.43-.69.53-.14,1.08-.23,1.63-.28,1.02-.09,2.08-.07,3.07.2.28.08.4-.36.12-.43h0Z"/>
        <path class="cls-13" d="M160.26,201.39c-1-.2-1.99-.41-2.99-.61-.47-.1-1-.15-1.44-.35-.42-.19-.76-.69-.33-1.07.34-.29.88-.35,1.3-.32.5.04.99.06,1.49.07,1.01.03,2.01.03,3.02.12.29.02.29-.43,0-.45-1.22-.1-2.44-.08-3.67-.14-.86-.04-2.25-.25-2.72.74-.18.39-.06.83.24,1.13.33.34.81.46,1.27.55,1.24.26,2.47.51,3.71.76.28.06.4-.38.12-.43h0Z"/>
        <path class="cls-13" d="M156.81,196.65c1.94-.24,4.04-.49,5.96-.06.28.06.4-.37.12-.43-1.97-.45-4.1-.21-6.08.04-.28.04-.29.49,0,.45h0Z"/>
      </g>
      <path class="cls-17" d="M149.93,196.37l-20.37,13.33s-2.31-5.63-5.01-11.18c-2.76-5.66-7.59-15.1-12.85-15.77-1.73-.22-4.13-.82-5.2-.39-8.44,3.41,2.92,25.35,2.92,25.35,0,0,10.32,15.97,15.02,18.14,4.7,2.16,29.98-21.34,29.98-21.34l-4.49-8.15Z"/>
      <path class="cls-5" d="M122.84,219.45c.57-3.31,1.54-6.49,1.69-9.86.23-5.03-1.11-9.94-3.48-14.36-2.04-3.81-4.74-7.22-7.68-10.36-.33-.35-.86.18-.53.53,4.53,4.84,8.59,10.46,10.23,16.98,1.01,4.03.89,8.14.06,12.19-.32,1.57-.74,3.11-1.01,4.69-.08.47.64.67.72.2h0Z"/>
      <g>
        <path class="cls-17" d="M41.37,436.84c-.47-1.21-1.17-2.33-2.06-3.28h0s-1.4-4.98,2.54-15.4l-3.58-3.45c-1.27-1.18-3.16-1.46-4.72-.68-.22.09-.42.23-.59.41-.8.88-1.54,1.81-2.21,2.79-2.26,3.36-4.3,6.84-6.14,10.44l.75.46,4.07-6.42c1.39-2.19,1.63,1.43.73,4.1-.9,2.67-1.32,5.84,3.59,8.75,5.74,3.37,8.31,4.47,7.62,2.3Z"/>
        <path class="cls-1" d="M43.11,414.34s-1.64,4.86-2.99,10.5c-.84,2.83-1.12,5.79-.82,8.72,0,0-4.1-1.44-4.28-4.82-.18-3.38,2.48-13.02-1.53-14.69.67-.45,1.38-.82,2.14-1.1,1.13-.51,7.47,1.39,7.47,1.39Z"/>
      </g>
      <g>
        <path class="cls-17" d="M114.75,434.9c-1.01-.83-2.17-1.47-3.43-1.88h0s-3.69-3.67-5.41-14.66l-4.84-1.29c-1.69-.42-3.48.25-4.46,1.67-.15.19-.25.41-.31.64-.26,1.15-.45,2.32-.55,3.5-.31,4.01-.37,8.04-.18,12.06l.88.04.37-7.56c.13-2.58,2.13.46,2.67,3.23.54,2.76,1.74,5.73,7.47,5.91,6.68.18,9.46-.1,7.79-1.66Z"/>
        <path class="cls-1" d="M105.12,414.42s.98,5.03,2.6,10.6c.67,2.87,1.89,5.59,3.61,8,0,0-4.29.72-6.12-2.15-1.83-2.86-4.29-12.56-8.61-12.09.36-.71.8-1.38,1.32-1.99.73-.99,7.21-2.38,7.21-2.38Z"/>
      </g>
      <g>
        <path class="cls-2" d="M115.17,238.74s12.49,30.61,2.57,79.53c-.26,28.49-10.36,98.17-10.36,98.17-3.36.94-14,.29-17.43-.41,0,0-.3-55.4,2.09-101.81-7.24-47.63-6.74-72.84-6.74-72.84l29.87-2.65Z"/>
        <path class="cls-2" d="M108.72,240.35s-12.13,62.62-20.35,89.5c-8.64,28.22-41.04,87.22-42.01,89.11-3.94-.86-12.21-4.25-14.62-6.36,0,0,19.01-57.59,30.16-88.32,2.53-15.75,4.26-24.97,3.81-41.65-.83-30.91,13.73-44.21,13.73-44.21l29.29,1.94Z"/>
        <polygon class="cls-3" points="101.88 273.84 112.24 265.52 103.53 278.37 91.24 331.39 91.85 317.24 101.88 273.84"/>
      </g>
      <g>
        <path class="cls-11" d="M117.25,198.6s5.24,11.7,1.94,18.59c-6.67,19.99,1.62,20.89-.94,24.58-3.82,3.01-27.36,7.04-39.71-2.53,1.64-8.13,2.02-22.1-4-45.24-1.3-4.99,1.75-10.08,6.82-11.36.32-.08.65-.15.98-.19,1.48-.21,3.06-.41,4.67-.56,5.64-.64,8.87-.7,14.54-.55.99.05.18-.12,3.19.59,0,0,6.02,4.46,7.72,7.15,1.82,2.88,4.7,9.3,4.78,9.54Z"/>
        <g class="cls-30">
          <path class="cls-5" d="M113.79,217.58c-1.89,4.3-5.37,7.9-9.64,9.97,2.93.43,5.86-.53,8.66-1.48-2.93,2.99-7.88,3.85-11.68,2.03,4.05-3.46,8.61-7.07,12.66-10.53Z"/>
        </g>
      </g>
      <g>
        <path class="cls-17" d="M64.34,170.62c.49-1.56,1.67-2.75,2.6-4.07,1.76-2.47,2.68-5.48,3.39-8.48.7-3,1.21-6.06,2.27-8.94,1.06-2.88,2.74-5.62,5.25-7.23,2.51-1.61,5.96-1.86,8.36-.06l1.28.22c-2.26,9.5-1.49,19.52-3.05,29.17-.39,2.44-1,4.98-2.62,6.78-2.6,2.88-7.02,2.96-10.66,1.81-1.98-.63-3.93-1.59-5.33-3.2-1.39-1.61-2.14-3.95-1.49-6Z"/>
        <path class="cls-17" d="M84.76,142.1c2.91-2.84,5.6-4.52,9.45-5.11,3.38-.52,8.16-.14,11.24,1.52,4.19,2.26,6.73,7.15,8.32,12.01,1.79,5.45-.4,12.14-2.95,17.15-1.06,2.07-2,2.93-4.08,2.72l-.77,1.09c-6.3,1.92-12.02,8.58-23.81-9.48-3.9-5.97-2.29-15.13,2.61-19.9Z"/>
        <path class="cls-1" d="M100.78,180.93c-.99-.85-.61-2.68-.47-4.47.09-1.37.47-2.81.93-4.21l-1.95-1.88-10.06-8.4c.77,6.12,2.91,15.95-1.67,19.7l-2.59.33c1.69,1.14,6.34,6.79,16.38,7.22,5.44.23,4.22-5.26,2.64-7.57-2.48-.53-3.22-.71-3.22-.71Z"/>
        <path class="cls-10" d="M100.37,177.26c-2.68-.48-6.58-2.04-7.37-4.99-.33-1.21-.42-2.43-.38-3.24l8.14,4.49c-.04,1.17-.64,2.08-.38,3.74Z"/>
        <path class="cls-1" d="M84.89,152.41c1.74,9.28,2.27,13.23,7.63,17.69,8.06,6.71,19.17,3.21,20.26-6.24.98-8.5-2.03-22.25-11.72-25.34-9.55-3.05-17.92,4.61-16.18,13.88Z"/>
        <path class="cls-17" d="M98.81,154.96c.05,1.05.61,1.9,1.23,1.91.63,0,1.09-.83,1.04-1.88-.05-1.05-.61-1.9-1.23-1.91-.63,0-1.09.83-1.04,1.88Z"/>
        <path class="cls-17" d="M97.01,152.26c.12.02.25-.02.34-.1,1.5-1.3,3.15-.79,3.16-.79.24.08.49-.05.56-.3.06-.24-.09-.51-.33-.59-.09-.03-2.15-.67-4.01.95-.19.16-.2.45-.02.65.08.1.19.15.31.17Z"/>
        <path class="cls-17" d="M110.54,150.53c.11-.03.21-.1.26-.21.12-.22.02-.49-.22-.61-2.37-1.22-4.27-.29-4.35-.25-.23.11-.3.38-.17.6.13.22.43.31.65.19.07-.04,1.57-.74,3.45.24.12.06.26.07.37.04Z"/>
        <path class="cls-13" d="M104.25,153.24s1.81,3.37,3.69,5.4c.33.36.2.93-.24,1.13-1.13.53-2.54.27-2.54.27l-.91-6.8Z"/>
        <path class="cls-17" d="M99.48,153.16l2.18-.53s-2.63,1.99-2.18.53Z"/>
        <path class="cls-17" d="M107.32,154.2c.05,1.07.61,1.94,1.23,1.94.63,0,1.09-.85,1.04-1.92-.05-1.07-.61-1.94-1.23-1.94-.63,0-1.09.85-1.04,1.92Z"/>
        <path class="cls-17" d="M107.93,152.38l2.18-.53s-2,1.65-2.18.53Z"/>
        <path class="cls-17" d="M90.11,168.45c-9.56-5.54-11.77-29.35,4.8-31.42,16.57-2.07,18.94,20.32,18.94,20.32-6.67-13.43-21.14-13.57-21.14-13.57,3.53,7.11-2.74,12.16-2.74,12.16-2.08,4.9.14,10.29.15,12.5Z"/>
        <path class="cls-1" d="M82.73,160.29c1.3,1.82,3.24,2.86,4.94,3.12,2.57.39,3.5-3.7,2.41-6.11-.98-2.16-3.59-3.42-5.99-2.71-2.37.7-2.85,3.62-1.37,5.7Z"/>
        <path class="cls-27" d="M86.04,156.82c-.82-.26-1.63.31-1.86.98-.28.81.27,2.63,2.77,3.08"/>
        <g class="cls-30">
          <path class="cls-5" d="M92.03,144.05c.69,1.06.73,2.47.27,3.64-.52,1.31-1.78,2.22-2.99,2.86-2.78,1.47-6.04,2.07-9.17,1.98-.48-.01-.48.74,0,.75,3.47.1,7.24-.6,10.22-2.46,1.2-.75,2.3-1.78,2.74-3.16.42-1.3.32-2.82-.43-3.97-.26-.4-.91-.03-.65.38h0Z"/>
        </g>
        <g class="cls-30">
          <path class="cls-5" d="M85.12,141.36c-3.46,3.26-5.81,7.97-5.72,12.78.09,4.59,2.51,8.55,5.27,12.06.3.38.83-.15.53-.53-2.63-3.35-4.96-7.15-5.05-11.53-.09-4.62,2.17-9.12,5.5-12.25.35-.33-.18-.86-.53-.53h0Z"/>
        </g>
        <g class="cls-30">
          <path class="cls-5" d="M91.2,144.04c-1.2,3.68-5.08,5.82-8.85,5-.47-.1-.67.62-.2.72,4.18.9,8.44-1.44,9.77-5.53.15-.46-.57-.66-.72-.2h0Z"/>
        </g>
      </g>
      <g>
        <path class="cls-17" d="M87.93,178.47c.54,3.08,8.02,35.03,8.9,44.43.89,9.4-9.57,48.04-12.23,50.51-2.66,2.47-25.73-12.93-24.95-13.15s12.94-19.73,14.62-28.12c1.68-8.39-.81-41.25-1.15-44.83-.33-3.58,5.21-3.3,10.71-5.6l2.77-3.52,1.32.29Z"/>
        <path class="cls-6" d="M69.97,242.97l2.38,14.35-2.42.45s3.82,9.26,3.43,11.54l-5.45-2.59-3.08-13.75,5.13-9.99Z"/>
        <g>
          <path class="cls-17" d="M79,183.59c-3.13.18-8.53,2.06-9.56,4.7-3.89,9.93-11.62,33.29-13.24,38.92-1.03,3.57,2.68,30.61,2.68,30.61l11.52-1.7s-2.66-25.9-1.89-27.65c2.9-6.53,13.8-24.24,15.13-30.15,1.34-5.91,2.6-11.36-.73-13.8-1-.73-2.73-1.01-3.91-.94Z"/>
          <path class="cls-1" d="M61.59,257.43c.38,1.89-.38,3.82-.63,5.25-.4,2.29,1.25,4.4.97,5.38-.75,2.62-4.02,6.65-2.72,7.57,1.3.92,4.28-3.89,4.28-3.89,0,0-2.54,5.53-1.31,6.36,1.71,1.15,1.95.42,1.95.42,0,0,.52,1.16,1.74.79.75-.23,2.95-3.39,3.79-8.29,0,0,.11,1.6.05,4.2-.02,1.04-.74,2.2-.46,3.43.4,1.73,2.92-1,3.17-3.96.25-2.95-1.35-8.27-2.55-12.01-.13-.41-.31-.9-.51-1.43l-1.43-4.78"/>
          <path class="cls-13" d="M64.24,278.62c.92-1.44,1.83-2.9,2.35-4.54.6-1.91.62-3.93.48-5.91-.03-.48-.78-.48-.75,0,.14,1.91.13,3.86-.45,5.71-.5,1.57-1.39,2.98-2.27,4.36-.26.41.39.78.65.38h0Z"/>
          <path class="cls-13" d="M63.73,272c.48-1.5,1.26-3.19.58-4.75-.08-.19-.35-.23-.51-.13-.19.11-.22.33-.13.51.28.64.19,1.37.02,2.03-.19.72-.44,1.43-.67,2.14-.15.46.58.66.72.2h0Z"/>
        </g>
        <path class="cls-5" d="M94.8,212.54c-1.91-2.75-3.79-5.52-5.64-8.32-.86-1.31-2.22-2.86-2.32-4.49-.08-1.34.89-2.48.9-3.81.02-2.27-2.36-3.33-3.48-5.01-1.94-2.92-.51-6.43.59-9.36.17-.45-.56-.65-.72-.2-1.01,2.69-2.13,5.53-1.22,8.42.36,1.15,1.04,2.05,1.89,2.89,1.11,1.09,2.49,2.13,2.1,3.88-.28,1.26-.99,2.3-.76,3.65.25,1.42,1.2,2.64,1.97,3.81,1.97,3,3.98,5.97,6.03,8.92.27.39.92.02.65-.38h0Z"/>
        <path class="cls-5" d="M75.24,217.14c2.34-4.3,4.3-8.79,5.87-13.42.16-.46-.57-.65-.72-.2-1.55,4.57-3.49,9-5.8,13.24-.23.42.42.8.65.38h0Z"/>
        <path class="cls-5" d="M84.15,248.22c-3.17-1.8-6.33-3.61-9.5-5.41-.42-.24-.8.41-.38.65,3.17,1.8,6.33,3.61,9.5,5.41.42.24.8-.41.38-.65h0Z"/>
      </g>
      <g>
        <path class="cls-17" d="M104.78,163.61c-.7.75-1.34,1.55-1.92,2.39-.16-.07-.33-.15-.49-.23-2.23-1.05-2.92-2.26-2.99-3.29-.03-.5.07-1.01.28-1.47.11-.26.26-.51.44-.73.85,1.26,2.85,2.39,3.94,2.96.48.22.75.37.75.37Z"/>
        <path class="cls-11" d="M104.03,163.22l-.59.69c-2.1-.99-3.44-1.96-3.79-2.92.11-.26.26-.51.44-.73.85,1.27,2.85,2.39,3.94,2.96Z"/>
        <path class="cls-18" d="M102.39,165.79c-2.23-1.05-2.92-2.26-2.99-3.29.84.41,1.6.97,2.24,1.65.42.46.68,1.03.75,1.64Z"/>
      </g>
    </g>
  </g>
</svg>